<svg width="40" height="40" viewBox="0 0 40 40" fill="none" xmlns="http://www.w3.org/2000/svg">
<g id="eva:bar-chart-fill">
<path id="Vector" d="M6.66663 20C6.66663 20.442 6.84222 20.866 7.15478 21.1785C7.46734 21.4911 7.89127 21.6667 8.33329 21.6667H33.3333C33.7753 21.6667 34.1992 21.4911 34.5118 21.1785C34.8244 20.866 35 20.442 35 20C35 19.558 34.8244 19.1341 34.5118 18.8215C34.1992 18.5089 33.7753 18.3333 33.3333 18.3333H8.33329C7.89127 18.3333 7.46734 18.5089 7.15478 18.8215C6.84222 19.1341 6.66663 19.558 6.66663 20ZM20 8.33335C20 8.77538 20.1756 9.1993 20.4881 9.51186C20.8007 9.82442 21.2246 10 21.6666 10H33.3333C33.7753 10 34.1992 9.82442 34.5118 9.51186C34.8244 9.1993 35 8.77538 35 8.33335C35 7.89132 34.8244 7.4674 34.5118 7.15484C34.1992 6.84228 33.7753 6.66668 33.3333 6.66668H21.6666C21.2246 6.66668 20.8007 6.84228 20.4881 7.15484C20.1756 7.4674 20 7.89132 20 8.33335ZM13.3333 31.6667C13.3333 32.1087 13.5089 32.5326 13.8214 32.8452C14.134 33.1577 14.5579 33.3333 15 33.3333H33.3333C33.7753 33.3333 34.1992 33.1577 34.5118 32.8452C34.8244 32.5326 35 32.1087 35 31.6667C35 31.2246 34.8244 30.8007 34.5118 30.4882C34.1992 30.1756 33.7753 30 33.3333 30H15C14.5579 30 14.134 30.1756 13.8214 30.4882C13.5089 30.8007 13.3333 31.2246 13.3333 31.6667Z" fill="black"/>
</g>
</svg>
