<svg width="30" height="30" viewBox="0 0 30 30" fill="none" xmlns="http://www.w3.org/2000/svg">
<g id="akar-icons:instagram-fill">
<rect width="29.5472" height="30" fill="#FEFEFE"/>
<path id="Vector" fill-rule="evenodd" clip-rule="evenodd" d="M9.19036 1.3325C10.6345 1.265 11.0949 1.25 14.7736 1.25C18.4522 1.25 18.9126 1.26625 20.3555 1.3325C21.7984 1.39875 22.7833 1.6325 23.6451 1.97125C24.5475 2.3175 25.3662 2.85875 26.0434 3.55875C26.7328 4.245 27.2646 5.075 27.6044 5.9925C27.9393 6.8675 28.1683 7.8675 28.2348 9.33C28.3013 10.7988 28.316 11.2663 28.316 15C28.316 18.735 28.3 19.2025 28.2348 20.6687C28.1695 22.1312 27.9393 23.1312 27.6044 24.0062C27.2646 24.9239 26.7319 25.7552 26.0434 26.4425C25.3662 27.1425 24.5475 27.6825 23.6451 28.0275C22.7833 28.3675 21.7984 28.6 20.358 28.6675C18.9126 28.735 18.4522 28.75 14.7736 28.75C11.0949 28.75 10.6345 28.7338 9.19036 28.6675C7.74994 28.6013 6.76503 28.3675 5.90323 28.0275C4.99948 27.6825 4.18066 27.1416 3.50375 26.4425C2.81479 25.7558 2.28162 24.9249 1.94144 24.0075C1.60781 23.1325 1.37882 22.1325 1.31233 20.67C1.24585 19.2012 1.23108 18.7337 1.23108 15C1.23108 11.265 1.24708 10.7975 1.31233 9.3325C1.37758 7.8675 1.60781 6.8675 1.94144 5.9925C2.28213 5.0751 2.8157 4.24414 3.50498 3.5575C4.18093 2.85813 4.99893 2.3168 5.902 1.97125C6.7638 1.6325 7.7487 1.4 9.18913 1.3325H9.19036ZM20.2459 3.8075C18.8178 3.74125 18.3894 3.7275 14.7736 3.7275C11.1577 3.7275 10.7293 3.74125 9.30116 3.8075C7.98016 3.86875 7.26364 4.0925 6.78596 4.28125C6.15439 4.53125 5.70256 4.8275 5.22857 5.30875C4.77926 5.75256 4.43348 6.29285 4.21658 6.89C4.03068 7.375 3.81031 8.1025 3.74998 9.44375C3.68473 10.8937 3.67119 11.3287 3.67119 15C3.67119 18.6713 3.68473 19.1062 3.74998 20.5562C3.81031 21.8975 4.03068 22.625 4.21658 23.11C4.43326 23.7063 4.77921 24.2475 5.22857 24.6913C5.66563 25.1475 6.19871 25.4988 6.78596 25.7188C7.26364 25.9075 7.98016 26.1313 9.30116 26.1925C10.7293 26.2588 11.1565 26.2725 14.7736 26.2725C18.3906 26.2725 18.8178 26.2588 20.2459 26.1925C21.567 26.1313 22.2835 25.9075 22.7612 25.7188C23.3927 25.4688 23.8446 25.1725 24.3185 24.6913C24.7679 24.2475 25.1139 23.7063 25.3305 23.11C25.5164 22.625 25.7368 21.8975 25.7971 20.5562C25.8624 19.1062 25.8759 18.6713 25.8759 15C25.8759 11.3287 25.8624 10.8937 25.7971 9.44375C25.7368 8.1025 25.5164 7.375 25.3305 6.89C25.0843 6.24875 24.7925 5.79 24.3185 5.30875C23.8814 4.85259 23.3493 4.50151 22.7612 4.28125C22.2835 4.0925 21.567 3.86875 20.2459 3.8075V3.8075ZM13.0438 19.2387C14.0098 19.647 15.0855 19.7021 16.0871 19.3947C17.0887 19.0872 17.9541 18.4361 18.5354 17.5528C19.1168 16.6695 19.3781 15.6086 19.2746 14.5514C19.1712 13.4942 18.7095 12.5062 17.9684 11.7562C17.4959 11.2768 16.9246 10.9098 16.2956 10.6814C15.6667 10.4531 14.9957 10.3692 14.331 10.4358C13.6662 10.5023 13.0243 10.7177 12.4514 11.0664C11.8785 11.4151 11.3889 11.8884 11.0177 12.4523C10.6466 13.0162 10.4033 13.6566 10.3052 14.3275C10.2071 14.9983 10.2567 15.6829 10.4505 16.3319C10.6442 16.9809 10.9773 17.5783 11.4258 18.0809C11.8742 18.5835 12.4268 18.979 13.0438 19.2387ZM9.85148 10.0025C10.4979 9.34622 11.2652 8.82563 12.1097 8.47045C12.9543 8.11528 13.8594 7.93247 14.7736 7.93247C15.6877 7.93247 16.5928 8.11527 17.4374 8.47045C18.2819 8.82563 19.0493 9.34622 19.6956 10.0025C20.342 10.6588 20.8547 11.4379 21.2046 12.2954C21.5544 13.1528 21.7344 14.0719 21.7344 15C21.7344 15.9281 21.5544 16.8472 21.2046 17.7046C20.8547 18.5621 20.342 19.3412 19.6956 19.9975C18.3902 21.3229 16.6197 22.0675 14.7736 22.0675C12.9274 22.0675 11.1569 21.3229 9.85148 19.9975C8.54607 18.6721 7.81269 16.8744 7.81269 15C7.81269 13.1256 8.54607 11.3279 9.85148 10.0025V10.0025ZM23.2782 8.985C23.4384 8.83159 23.5666 8.6471 23.6553 8.44247C23.744 8.23783 23.7914 8.01721 23.7946 7.79366C23.7978 7.57011 23.7568 7.34818 23.674 7.14101C23.5912 6.93384 23.4684 6.74564 23.3127 6.58755C23.157 6.42946 22.9716 6.3047 22.7675 6.22065C22.5635 6.1366 22.3449 6.09497 22.1247 6.09823C21.9046 6.10149 21.6873 6.14957 21.4857 6.23962C21.2842 6.32967 21.1025 6.45987 20.9514 6.6225C20.6575 6.93879 20.4966 7.3589 20.5029 7.79366C20.5091 8.22842 20.682 8.6436 20.9848 8.95105C21.2876 9.25851 21.6965 9.43404 22.1247 9.44037C22.5529 9.44671 22.9667 9.28336 23.2782 8.985V8.985Z" fill="#333333"/>
</g>
</svg>
