<svg width="30" height="30" viewBox="0 0 30 30" fill="none" xmlns="http://www.w3.org/2000/svg">
<g id="akar-icons:whatsapp-fill">
<rect width="29.5472" height="30" transform="translate(0.2854)" fill="#FEFEFE"/>
<path id="Vector" fill-rule="evenodd" clip-rule="evenodd" d="M21.7256 17.9775C21.3587 17.7913 19.56 16.8938 19.2252 16.7688C18.8903 16.645 18.6465 16.5838 18.4015 16.9563C18.1578 17.3263 17.4573 18.1638 17.2443 18.4113C17.0301 18.66 16.8171 18.69 16.4514 18.505C16.0858 18.3175 14.9064 17.9263 13.509 16.6613C12.4219 15.6763 11.6869 14.46 11.4739 14.0875C11.261 13.7163 11.4506 13.515 11.634 13.33C11.799 13.1638 11.9996 12.8963 12.1831 12.68C12.3665 12.4625 12.4268 12.3075 12.5487 12.0588C12.6718 11.8113 12.6103 11.595 12.518 11.4088C12.4268 11.2225 11.6956 9.39376 11.3902 8.65001C11.0935 7.92626 10.7919 8.02501 10.5678 8.01251C10.3536 8.00251 10.1099 8.00001 9.86609 8.00001C9.62232 8.00001 9.2259 8.09251 8.89103 8.46501C8.55493 8.83626 7.61065 9.73501 7.61065 11.5638C7.61065 13.3913 8.92058 15.1575 9.10402 15.4063C9.28745 15.6538 11.6832 19.4063 15.3533 21.015C16.2274 21.3975 16.9082 21.6263 17.4388 21.7963C18.3154 22.08 19.1131 22.04 19.7435 21.9438C20.4452 21.8375 21.9078 21.045 22.2131 20.1775C22.5172 19.31 22.5172 18.5663 22.4261 18.4113C22.335 18.2563 22.0913 18.1638 21.7244 17.9775H21.7256ZM15.0504 27.2313H15.0455C12.8657 27.2317 10.7259 26.6367 8.8504 25.5088L8.40719 25.2413L3.80029 26.4688L5.03019 21.9088L4.74088 21.4413C3.52222 19.4717 2.8773 17.1922 2.88063 14.8663C2.88309 8.05376 8.34194 2.51126 15.0553 2.51126C18.3055 2.51126 21.3612 3.79876 23.6585 6.13376C24.7916 7.27949 25.6897 8.64197 26.3008 10.1424C26.912 11.6428 27.224 13.2514 27.2189 14.875C27.2165 21.6875 21.7576 27.2313 15.0504 27.2313V27.2313ZM25.4067 4.36001C24.0502 2.97367 22.4363 1.87443 20.6583 1.12601C18.8804 0.377593 16.9738 -0.00513346 15.0492 1.3075e-05C6.98031 1.3075e-05 0.410976 6.66876 0.408514 14.865C0.404775 17.4735 1.07871 20.0367 2.36232 22.2963L0.2854 30L8.04647 27.9325C10.1934 29.1202 12.5993 29.7425 15.0442 29.7425H15.0504C23.1192 29.7425 29.6886 23.0738 29.691 14.8763C29.697 12.9229 29.3214 10.9876 28.586 9.18255C27.8506 7.37747 26.77 5.73835 25.4067 4.36001" fill="#333333"/>
</g>
</svg>
