<svg width="31" height="30" viewBox="0 0 31 30" fill="none" xmlns="http://www.w3.org/2000/svg">
<g id="akar-icons:twitter-fill">
<rect width="29.5472" height="30" transform="translate(0.843262)" fill="#FEFEFE"/>
<path id="Vector" d="M29.951 6.17125C28.923 6.63375 27.8186 6.94625 26.6577 7.0875C27.8556 6.35974 28.7518 5.21433 29.179 3.865C28.0536 4.54373 26.8218 5.02149 25.5373 5.2775C24.6736 4.34108 23.5294 3.7204 22.2826 3.51184C21.0358 3.30327 19.7561 3.51849 18.6421 4.12406C17.528 4.72964 16.6421 5.6917 16.1218 6.86088C15.6015 8.03005 15.4759 9.34093 15.7646 10.59C13.4842 10.4737 11.2533 9.87193 9.21672 8.82363C7.18017 7.77532 5.38348 6.30395 3.94325 4.505C3.4508 5.3675 3.16763 6.3675 3.16763 7.4325C3.16709 8.39124 3.39962 9.3353 3.84461 10.1809C4.2896 11.0265 4.93328 11.7475 5.71854 12.28C4.80785 12.2506 3.91724 12.0007 3.12085 11.5512V11.6262C3.12076 12.9709 3.57887 14.2742 4.41746 15.315C5.25605 16.3558 6.42346 17.0699 7.7216 17.3362C6.87678 17.5684 5.99104 17.6026 5.13129 17.4362C5.49755 18.5933 6.21099 19.605 7.17174 20.3299C8.13248 21.0548 9.29243 21.4565 10.4892 21.4787C8.45761 23.098 5.94863 23.9764 3.36585 23.9725C2.90833 23.9726 2.45121 23.9455 1.99683 23.8912C4.6185 25.6027 7.67031 26.511 10.7871 26.5075C21.3379 26.5075 27.1058 17.635 27.1058 9.94C27.1058 9.69 27.0997 9.4375 27.0886 9.1875C28.2105 8.36371 29.1789 7.34362 29.9485 6.175L29.951 6.17125Z" fill="#333333"/>
</g>
</svg>
