<svg width="27" height="27" viewBox="0 0 27 27" fill="none" xmlns="http://www.w3.org/2000/svg">
<path d="M20.25 10.6132H18.5625C18.5618 9.96381 18.2949 9.34122 17.8204 8.88205C17.3458 8.42288 16.7024 8.16463 16.0312 8.16398V6.53119C17.1497 6.53249 18.222 6.96297 19.0129 7.72821C19.8038 8.49345 20.2487 9.53096 20.25 10.6132Z" fill="#333333"/>
<path d="M23.625 10.6132H21.9375C21.9357 9.09804 21.3129 7.64546 20.2056 6.57411C19.0984 5.50275 17.5971 4.90011 16.0312 4.89838V3.26559C18.0445 3.26775 19.9748 4.04256 21.3984 5.42003C22.822 6.7975 23.6228 8.66512 23.625 10.6132ZM21.9375 23.6755H21.7941C5.21437 22.753 2.86031 9.21712 2.53125 5.08615C2.47982 4.43854 2.69636 3.79769 3.13323 3.30455C3.57011 2.81141 4.19154 2.50637 4.86084 2.45654C4.92778 2.45164 4.995 2.44919 5.0625 2.44919H9.50906C9.84703 2.44887 10.1773 2.54676 10.4571 2.73016C10.7369 2.91357 10.9534 3.17404 11.0784 3.47785L12.3609 6.53117C12.4844 6.82797 12.5151 7.15333 12.4491 7.46684C12.3831 7.78034 12.2233 8.06818 11.9897 8.29459L10.1925 10.0498C10.4721 11.5939 11.2357 13.0174 12.3798 14.1273C13.5239 15.2373 14.9931 15.9799 16.5881 16.2545L18.4191 14.4992C18.6566 14.2756 18.9569 14.1247 19.2825 14.0652C19.608 14.0056 19.9446 14.0402 20.25 14.1645L23.4309 15.3972C23.7402 15.5221 24.004 15.7331 24.1889 16.0036C24.3737 16.274 24.4711 16.5915 24.4687 16.9157V21.2263C24.4687 21.8759 24.2021 22.4988 23.7274 22.9582C23.2527 23.4175 22.6088 23.6755 21.9375 23.6755ZM5.0625 4.08198C4.9517 4.08166 4.84191 4.10246 4.73942 4.14319C4.63692 4.18392 4.54372 4.24378 4.46513 4.31937C4.38655 4.39495 4.32412 4.48477 4.28141 4.5837C4.2387 4.68262 4.21655 4.78872 4.21622 4.89593C4.21622 4.91879 4.21706 4.94138 4.21875 4.96369C4.60687 9.79676 7.09594 21.2263 21.8869 22.0427C22.1102 22.0557 22.3297 21.9823 22.4971 21.8387C22.6645 21.6951 22.7661 21.493 22.7796 21.2769L22.7812 21.2263V16.9157L19.6003 15.683L17.1787 18.0097L16.7737 17.9607C9.43312 17.0709 8.4375 9.9682 8.4375 9.89473L8.38687 9.50286L10.7831 7.1598L9.5175 4.08198H5.0625Z" fill="#333333"/>
</svg>
