<svg width="52" height="50" viewBox="0 0 52 50" fill="none" xmlns="http://www.w3.org/2000/svg">
<g id="akar-icons:instagram-fill">
<path id="Vector" fill-rule="evenodd" clip-rule="evenodd" d="M16.0732 2.221C18.5988 2.1085 19.4041 2.0835 25.8376 2.0835C32.2712 2.0835 33.0765 2.11058 35.5999 2.221C38.1234 2.33141 39.8459 2.721 41.3531 3.28558C42.9314 3.86266 44.3632 4.76475 45.5474 5.93141C46.7532 7.07516 47.6833 8.4585 48.2776 9.98766C48.8633 11.446 49.2637 13.1127 49.38 15.5502C49.4963 17.9981 49.5221 18.7772 49.5221 25.0002C49.5221 31.2252 49.4941 32.0043 49.38 34.4481C49.2659 36.8856 48.8633 38.5522 48.2776 40.0106C47.6833 41.5399 46.7516 42.9256 45.5474 44.071C44.3632 45.2377 42.9314 46.1377 41.3531 46.7127C39.8459 47.2793 38.1234 47.6668 35.6042 47.7793C33.0765 47.8918 32.2712 47.9168 25.8376 47.9168C19.4041 47.9168 18.5988 47.8897 16.0732 47.7793C13.554 47.6689 11.8315 47.2793 10.3243 46.7127C8.74371 46.1376 7.31166 45.2361 6.12782 44.071C4.92289 42.9266 3.99044 41.5416 3.3955 40.0127C2.812 38.5543 2.41151 36.8877 2.29524 34.4502C2.17897 32.0022 2.15314 31.2231 2.15314 25.0002C2.15314 18.7752 2.18113 17.996 2.29524 15.5543C2.40936 13.1127 2.812 11.446 3.3955 9.98766C3.99132 8.45867 4.92448 7.07373 6.12998 5.92933C7.31214 4.76371 8.74275 3.8615 10.3221 3.28558C11.8293 2.721 13.5518 2.3335 16.071 2.221H16.0732ZM35.4083 6.346C32.9107 6.23558 32.1614 6.21266 25.8376 6.21266C19.5139 6.21266 18.7646 6.23558 16.2669 6.346C13.9566 6.44808 12.7035 6.821 11.8681 7.13558C10.7635 7.55225 9.97332 8.046 9.14437 8.84808C8.35857 9.58777 7.75383 10.4883 7.37449 11.4835C7.04937 12.2918 6.66396 13.5043 6.55845 15.7397C6.44434 18.1564 6.42065 18.8814 6.42065 25.0002C6.42065 31.1189 6.44434 31.8439 6.55845 34.2606C6.66396 36.496 7.04937 37.7085 7.37449 38.5168C7.75344 39.5106 8.35847 40.4127 9.14437 41.1522C9.90873 41.9127 10.841 42.4981 11.8681 42.8648C12.7035 43.1793 13.9566 43.5523 16.2669 43.6543C18.7646 43.7648 19.5117 43.7877 25.8376 43.7877C32.1635 43.7877 32.9107 43.7648 35.4083 43.6543C37.7186 43.5523 38.9717 43.1793 39.8072 42.8648C40.9117 42.4481 41.7019 41.9543 42.5309 41.1522C43.3168 40.4127 43.9218 39.5106 44.3008 38.5168C44.6259 37.7085 45.0113 36.496 45.1168 34.2606C45.2309 31.8439 45.2546 31.1189 45.2546 25.0002C45.2546 18.8814 45.2309 18.1564 45.1168 15.7397C45.0113 13.5043 44.6259 12.2918 44.3008 11.4835C43.8701 10.4147 43.3598 9.65016 42.5309 8.84808C41.7664 8.08781 40.8357 7.50269 39.8072 7.13558C38.9717 6.821 37.7186 6.44808 35.4083 6.346V6.346ZM22.8125 32.0647C24.5019 32.7452 26.3832 32.8371 28.1349 32.3246C29.8865 31.8121 31.4 30.7271 32.4168 29.2548C33.4335 27.7826 33.8905 26.0145 33.7096 24.2525C33.5287 22.4905 32.7212 20.8439 31.425 19.5939C30.5987 18.7949 29.5996 18.1831 28.4996 17.8026C27.3996 17.422 26.2261 17.2822 25.0636 17.3931C23.901 17.5041 22.7783 17.863 21.7764 18.4442C20.7744 19.0253 19.9181 19.8142 19.2691 20.754C18.62 21.6938 18.1944 22.7612 18.0229 23.8792C17.8513 24.9973 17.9381 26.1383 18.277 27.22C18.6159 28.3017 19.1984 29.2973 19.9826 30.135C20.7669 30.9727 21.7334 31.6318 22.8125 32.0647ZM17.2294 16.671C18.3598 15.5772 19.7019 14.7095 21.1789 14.1176C22.6559 13.5256 24.2389 13.2209 25.8376 13.2209C27.4363 13.2209 29.0194 13.5256 30.4964 14.1176C31.9734 14.7095 33.3154 15.5772 34.4459 16.671C35.5763 17.7648 36.473 19.0633 37.0848 20.4925C37.6966 21.9216 38.0115 23.4533 38.0115 25.0002C38.0115 26.547 37.6966 28.0788 37.0848 29.5079C36.473 30.937 35.5763 32.2355 34.4459 33.3293C32.1628 35.5384 29.0663 36.7794 25.8376 36.7794C22.6089 36.7794 19.5124 35.5384 17.2294 33.3293C14.9463 31.1203 13.6637 28.1242 13.6637 25.0002C13.6637 21.8761 14.9463 18.88 17.2294 16.671V16.671ZM40.7115 14.9752C40.9916 14.7195 41.2159 14.412 41.371 14.0709C41.5261 13.7299 41.6089 13.3622 41.6145 12.9896C41.6202 12.617 41.5485 12.2471 41.4037 11.9019C41.2589 11.5566 41.044 11.2429 40.7717 10.9794C40.4994 10.7159 40.1752 10.508 39.8183 10.3679C39.4615 10.2278 39.0792 10.1584 38.6941 10.1639C38.3091 10.1693 37.9291 10.2494 37.5766 10.3995C37.2241 10.5496 36.9063 10.7666 36.6421 11.0377C36.1281 11.5648 35.8468 12.265 35.8577 12.9896C35.8686 13.7142 36.1709 14.4062 36.7005 14.9186C37.2301 15.431 37.9453 15.7236 38.6941 15.7341C39.443 15.7447 40.1667 15.4724 40.7115 14.9752V14.9752Z" fill="white"/>
</g>
</svg>
