<svg width="53" height="50" viewBox="0 0 53 50" fill="none" xmlns="http://www.w3.org/2000/svg">
<g id="akar-icons:whatsapp-fill" clip-path="url(#clip0_17_241)">
<path id="Vector" fill-rule="evenodd" clip-rule="evenodd" d="M38.1824 29.9626C37.5407 29.6522 34.395 28.1563 33.8093 27.948C33.2237 27.7418 32.7974 27.6397 32.3689 28.2605C31.9426 28.8772 30.7174 30.273 30.3449 30.6855C29.9703 31.1001 29.5978 31.1501 28.9583 30.8418C28.3188 30.5293 26.2561 29.8772 23.8123 27.7688C21.9111 26.1272 20.6257 24.1001 20.2532 23.4793C19.8807 22.8605 20.2123 22.5251 20.5331 22.2168C20.8216 21.9397 21.1726 21.4938 21.4934 21.1334C21.8142 20.7709 21.9197 20.5126 22.1329 20.098C22.3482 19.6855 22.2405 19.3251 22.0791 19.0147C21.9197 18.7043 20.6408 15.6563 20.1068 14.4168C19.5879 13.2105 19.0604 13.3751 18.6685 13.3543C18.2939 13.3376 17.8675 13.3334 17.4412 13.3334C17.0149 13.3334 16.3216 13.4876 15.7359 14.1084C15.1481 14.7272 13.4967 16.2251 13.4967 19.273C13.4967 22.3188 15.7876 25.2626 16.1084 25.6772C16.4292 26.0897 20.6192 32.3438 27.0377 35.0251C28.5665 35.6626 29.7571 36.0438 30.6851 36.3272C32.2182 36.8001 33.6134 36.7334 34.7158 36.573C35.9431 36.3959 38.501 35.0751 39.035 33.6292C39.5668 32.1834 39.5668 30.9438 39.4075 30.6855C39.2482 30.4272 38.8218 30.273 38.1802 29.9626H38.1824ZM26.5081 45.3855H26.4995C22.6872 45.3862 18.9449 44.3946 15.6649 42.5147L14.8897 42.0688L6.83272 44.1147L8.9837 36.5147L8.47771 35.7355C6.3464 32.4529 5.2185 28.6538 5.22432 24.7772C5.22863 13.423 14.7756 4.1855 26.5167 4.1855C32.201 4.1855 37.545 6.33134 41.5628 10.223C43.5445 12.1325 45.1152 14.4033 46.184 16.904C47.2528 19.4047 47.7986 22.0857 47.7896 24.7918C47.7853 36.1459 38.2383 45.3855 26.5081 45.3855V45.3855ZM44.6202 7.26675C42.2479 4.95618 39.4252 3.12412 36.3158 1.87675C33.2063 0.629385 29.872 -0.00849218 26.5059 8.53699e-05C12.3943 8.53699e-05 0.905136 11.1147 0.90083 24.7751C0.894291 29.1225 2.07294 33.3946 4.31785 37.1605L0.685516 50.0001L14.2589 46.5542C18.0137 48.5337 22.2214 49.5708 26.4973 49.5709H26.5081C40.6197 49.5709 52.1088 38.4563 52.1131 24.7938C52.1235 21.5382 51.4667 18.3128 50.1805 15.3043C48.8944 12.2958 47.0045 9.56398 44.6202 7.26675" fill="white"/>
</g>
<defs>
<clipPath id="clip0_17_241">
<rect width="51.6752" height="50" fill="white" transform="translate(0.685516)"/>
</clipPath>
</defs>
</svg>
