<svg width="32" height="30" viewBox="0 0 32 30" fill="none" xmlns="http://www.w3.org/2000/svg">
<g id="carbon:phone-voice">
<path id="Vector" d="M23.2539 12.1875H21.316C21.3153 11.4418 21.0088 10.7269 20.4638 10.1996C19.9189 9.6723 19.18 9.37574 18.4093 9.375V7.5C19.6937 7.50149 20.925 7.99583 21.8332 8.87458C22.7414 9.75334 23.2523 10.9448 23.2539 12.1875V12.1875Z" fill="white"/>
<path id="Vector_2" d="M27.1295 12.1875H25.1917C25.1896 10.4476 24.4744 8.77958 23.2029 7.54931C21.9314 6.31903 20.2075 5.62699 18.4093 5.625V3.75C20.7213 3.75248 22.9378 4.64223 24.5726 6.22403C26.2074 7.80583 27.1269 9.9505 27.1295 12.1875V12.1875ZM25.1917 27.1875H25.027C5.98787 26.1281 3.2846 10.5844 2.90673 5.84063C2.84767 5.09695 3.09633 4.36103 3.59801 3.79474C4.09969 3.22845 4.81331 2.87817 5.58189 2.82094C5.65876 2.81531 5.73595 2.8125 5.81346 2.8125H10.9196C11.3077 2.81214 11.687 2.92454 12.0083 3.13515C12.3296 3.34576 12.5782 3.64488 12.7218 3.99375L14.1945 7.5C14.3363 7.84083 14.3715 8.21445 14.2957 8.57446C14.2199 8.93447 14.0365 9.26501 13.7682 9.525L11.7044 11.5406C12.0255 13.3137 12.9024 14.9484 14.2162 16.223C15.53 17.4975 17.2171 18.3503 19.0488 18.6656L21.1513 16.65C21.4241 16.3933 21.7689 16.2199 22.1428 16.1516C22.5167 16.0832 22.9031 16.1229 23.2539 16.2656L26.9066 17.6813C27.2618 17.8246 27.5648 18.067 27.777 18.3775C27.9892 18.688 28.1011 19.0527 28.0984 19.425V24.375C28.0984 25.1209 27.7922 25.8363 27.247 26.3637C26.7019 26.8912 25.9626 27.1875 25.1917 27.1875ZM5.81346 4.6875C5.68622 4.68713 5.56015 4.71101 5.44245 4.75779C5.32475 4.80456 5.21773 4.8733 5.12748 4.9601C5.03724 5.04689 4.96555 5.15003 4.91651 5.26364C4.86746 5.37724 4.84202 5.49907 4.84164 5.62219C4.84164 5.64844 4.84261 5.67438 4.84455 5.7C5.29025 11.25 8.14854 24.375 25.1335 25.3125C25.39 25.3274 25.642 25.2431 25.8343 25.0782C26.0265 24.9133 26.1432 24.6813 26.1586 24.4331L26.1606 24.375V19.425L22.5078 18.0094L19.727 20.6812L19.2619 20.625C10.8324 19.6031 9.6891 11.4469 9.6891 11.3625L9.63097 10.9125L12.3827 8.22188L10.9293 4.6875H5.81346Z" fill="white"/>
</g>
</svg>
