<svg width="52" height="50" viewBox="0 0 52 50" fill="none" xmlns="http://www.w3.org/2000/svg">
<g id="akar-icons:twitter-fill" clip-path="url(#clip0_17_230)">
<path id="Vector" d="M51.1255 10.2856C49.3276 11.0565 47.3963 11.5773 45.3659 11.8127C47.4609 10.5998 49.0282 8.69076 49.7755 6.44187C47.8072 7.5731 45.653 8.36936 43.4065 8.79603C41.8958 7.23534 39.8949 6.20088 37.7143 5.85327C35.5338 5.50566 33.2956 5.86435 31.3473 6.87364C29.399 7.88294 27.8496 9.48637 26.9397 11.435C26.0297 13.3836 25.8101 15.5684 26.3149 17.6502C22.3266 17.4564 18.425 16.4534 14.8633 14.7063C11.3016 12.9591 8.15935 10.5068 5.64053 7.50853C4.77927 8.94603 4.28405 10.6127 4.28405 12.3877C4.28309 13.9856 4.68977 15.559 5.46801 16.9684C6.24626 18.3777 7.37199 19.5794 8.74535 20.4669C7.15262 20.4178 5.59504 20.0014 4.20223 19.2523V19.3773C4.20207 21.6184 5.00327 23.7906 6.46988 25.5252C7.93648 27.2598 9.97817 28.4501 12.2485 28.894C10.771 29.2809 9.22192 29.3379 7.7183 29.0606C8.35885 30.989 9.60659 32.6753 11.2868 33.8834C12.9671 35.0915 14.9957 35.761 17.0887 35.7981C13.5357 38.4969 9.14774 39.9608 4.63071 39.9544C3.83056 39.9546 3.03109 39.9094 2.23642 39.819C6.82147 42.6714 12.1588 44.1852 17.6098 44.1794C36.0622 44.1794 46.1496 29.3919 46.1496 16.5669C46.1496 16.1502 46.1388 15.7294 46.1195 15.3127C48.0816 13.9397 49.7753 12.2396 51.1212 10.2919L51.1255 10.2856V10.2856Z" fill="white"/>
</g>
<defs>
<clipPath id="clip0_17_230">
<rect width="51.6752" height="50" fill="white" transform="translate(0.218933)"/>
</clipPath>
</defs>
</svg>
