<svg width="20" height="21" viewBox="0 0 20 21" fill="none" xmlns="http://www.w3.org/2000/svg">
<g clip-path="url(#clip0_276_59)">
<path fill-rule="evenodd" clip-rule="evenodd" d="M6.22084 0.198066C7.19834 0.153066 7.51001 0.143066 10 0.143066C12.49 0.143066 12.8017 0.1539 13.7783 0.198066C14.755 0.242233 15.4217 0.398066 16.005 0.6239C16.6158 0.854733 17.17 1.21557 17.6283 1.68223C18.095 2.13973 18.455 2.69307 18.685 3.30473C18.9117 3.88807 19.0667 4.55473 19.1117 5.52973C19.1567 6.5089 19.1667 6.82057 19.1667 9.30973C19.1667 11.7997 19.1558 12.1114 19.1117 13.0889C19.0675 14.0639 18.9117 14.7306 18.685 15.3139C18.455 15.9256 18.0944 16.4799 17.6283 16.9381C17.17 17.4047 16.6158 17.7647 16.005 17.9947C15.4217 18.2214 14.755 18.3764 13.78 18.4214C12.8017 18.4664 12.49 18.4764 10 18.4764C7.51001 18.4764 7.19834 18.4656 6.22084 18.4214C5.24584 18.3772 4.57918 18.2214 3.99584 17.9947C3.38411 17.7647 2.82986 17.4041 2.37168 16.9381C1.90533 16.4803 1.54444 15.9263 1.31418 15.3147C1.08834 14.7314 0.933343 14.0647 0.888343 13.0897C0.843343 12.1106 0.833344 11.7989 0.833344 9.30973C0.833344 6.81973 0.844177 6.50807 0.888343 5.5314C0.93251 4.55473 1.08834 3.88807 1.31418 3.30473C1.54478 2.69313 1.90594 2.13916 2.37251 1.6814C2.83004 1.21515 3.38374 0.854269 3.99501 0.6239C4.57834 0.398066 5.24584 0.243066 6.22084 0.198066ZM13.7042 1.84807C12.7375 1.8039 12.4475 1.79473 10 1.79473C7.55251 1.79473 7.26251 1.8039 6.29584 1.84807C5.40168 1.8889 4.91668 2.03807 4.59334 2.1639C4.16584 2.33057 3.86001 2.52807 3.53918 2.8489C3.23505 3.14478 3.00099 3.50497 2.85418 3.90307C2.72834 4.2264 2.57918 4.7114 2.53834 5.60557C2.49418 6.57223 2.48501 6.86223 2.48501 9.30973C2.48501 11.7572 2.49418 12.0472 2.53834 13.0139C2.57918 13.9081 2.72834 14.3931 2.85418 14.7164C3.00084 15.1139 3.23501 15.4747 3.53918 15.7706C3.83501 16.0747 4.19584 16.3089 4.59334 16.4556C4.91668 16.5814 5.40168 16.7306 6.29584 16.7714C7.26251 16.8156 7.55168 16.8247 10 16.8247C12.4483 16.8247 12.7375 16.8156 13.7042 16.7714C14.5983 16.7306 15.0833 16.5814 15.4067 16.4556C15.8342 16.2889 16.14 16.0914 16.4608 15.7706C16.765 15.4747 16.9992 15.1139 17.1458 14.7164C17.2717 14.3931 17.4208 13.9081 17.4617 13.0139C17.5058 12.0472 17.515 11.7572 17.515 9.30973C17.515 6.86223 17.5058 6.57223 17.4617 5.60557C17.4208 4.7114 17.2717 4.2264 17.1458 3.90307C16.9792 3.47557 16.7817 3.16973 16.4608 2.8489C16.1649 2.54479 15.8048 2.31074 15.4067 2.1639C15.0833 2.03807 14.5983 1.8889 13.7042 1.84807ZM8.82918 12.1356C9.48306 12.4078 10.2112 12.4445 10.8891 12.2395C11.5671 12.0345 12.1528 11.6005 12.5464 11.0116C12.9399 10.4227 13.1167 9.71546 13.0467 9.01065C12.9767 8.30585 12.6642 7.64721 12.1625 7.14723C11.8427 6.82763 11.456 6.58291 11.0303 6.43069C10.6046 6.27847 10.1504 6.22253 9.70042 6.26691C9.25048 6.31129 8.81597 6.45488 8.42818 6.68734C8.04039 6.9198 7.70896 7.23535 7.45776 7.61128C7.20656 7.9872 7.04183 8.41414 6.97544 8.86137C6.90905 9.30859 6.94264 9.76498 7.07379 10.1977C7.20495 10.6303 7.43041 11.0286 7.73394 11.3637C8.03748 11.6988 8.41153 11.9624 8.82918 12.1356ZM6.66834 5.97807C7.10586 5.54054 7.62528 5.19348 8.19692 4.9567C8.76857 4.71992 9.38126 4.59804 10 4.59804C10.6188 4.59804 11.2314 4.71992 11.8031 4.9567C12.3747 5.19348 12.8942 5.54054 13.3317 5.97807C13.7692 6.41559 14.1163 6.935 14.353 7.50665C14.5898 8.0783 14.7117 8.69098 14.7117 9.30973C14.7117 9.92848 14.5898 10.5412 14.353 11.1128C14.1163 11.6845 13.7692 12.2039 13.3317 12.6414C12.4481 13.525 11.2496 14.0214 10 14.0214C8.75039 14.0214 7.55196 13.525 6.66834 12.6414C5.78473 11.7578 5.28832 10.5594 5.28832 9.30973C5.28832 8.06011 5.78473 6.86168 6.66834 5.97807ZM15.7567 5.29973C15.8651 5.19746 15.9519 5.07447 16.0119 4.93804C16.072 4.80162 16.104 4.65454 16.1062 4.50551C16.1084 4.35648 16.0806 4.20852 16.0246 4.07041C15.9685 3.93229 15.8854 3.80682 15.78 3.70143C15.6746 3.59604 15.5491 3.51286 15.411 3.45683C15.2729 3.4008 15.1249 3.37305 14.9759 3.37522C14.8269 3.37739 14.6798 3.40944 14.5434 3.46948C14.4069 3.52952 14.284 3.61631 14.1817 3.72473C13.9828 3.93559 13.8739 4.21567 13.8781 4.50551C13.8823 4.79535 13.9993 5.07213 14.2043 5.2771C14.4093 5.48207 14.6861 5.59909 14.9759 5.60331C15.2657 5.60754 15.5458 5.49864 15.7567 5.29973Z" fill="#0A66C2"/>
</g>
<defs>
<clipPath id="clip0_276_59">
<rect width="20" height="20" fill="white" transform="translate(0 0.143066)"/>
</clipPath>
</defs>
</svg>
