<svg width="50" height="50" viewBox="0 0 50 50" fill="none" xmlns="http://www.w3.org/2000/svg">
<g id="bx:leaf">
<path id="Vector" d="M45.5833 4.47917L43.0833 5.3125C38.7988 6.80114 34.2235 7.25796 29.7292 6.64584C25.0066 5.91295 20.1728 6.56421 15.8125 8.52084C13.501 9.5051 11.4724 11.0519 9.91142 13.0204C8.35042 14.989 7.30661 17.3167 6.87501 19.7917C6.43599 22.1718 6.4809 24.6159 7.00706 26.9783C7.53323 29.3407 8.52987 31.5729 9.93751 33.5417C9.81251 33.9792 9.68751 34.4167 9.58335 34.8542C8.73718 38.4521 8.31763 42.1372 8.33335 45.8333H12.5C12.6958 42.808 13.1066 39.8004 13.7292 36.8333C16.6197 38.3942 19.8612 39.1902 23.1458 39.1458C26.2093 39.1437 29.2413 38.5274 32.0625 37.3333C47.9167 30.5625 45.8333 8.04167 45.8333 7.10417L45.5833 4.47917ZM30.4375 33.5C25 35.8125 18.5 35.4167 14.8542 32.5625C15.4704 30.5021 16.3159 28.5175 17.375 26.6458C18.1983 25.2988 19.1696 24.048 20.2708 22.9167C21.3961 21.7733 22.6634 20.7791 24.0417 19.9583C26.8897 18.2553 30.0484 17.1364 33.3333 16.6667V14.5833C29.5537 14.4525 25.7973 15.2238 22.375 16.8333C18.8759 18.5407 15.9084 21.1697 13.7917 24.4375C13.0066 25.6856 12.3104 26.9874 11.7083 28.3333C10.7428 25.8632 10.4691 23.1766 10.9167 20.5625C11.21 18.7324 11.9644 17.007 13.1089 15.5491C14.2533 14.0912 15.7502 12.9486 17.4583 12.2292C19.9492 11.0649 22.6672 10.4673 25.4167 10.4792C26.7083 10.4792 27.9792 10.6042 29.3125 10.7083C33.4882 11.2471 37.7278 10.9998 41.8125 9.97917C41.6667 15.7292 40.625 29.1667 30.4375 33.5Z" fill="black"/>
</g>
</svg>
