<svg width="27" height="24" viewBox="0 0 27 24" fill="none" xmlns="http://www.w3.org/2000/svg">
<g id="bx:map">
<path id="Vector" d="M13.2 14C15.6266 14 17.6 12.206 17.6 10C17.6 7.794 15.6266 6 13.2 6C10.7734 6 8.80005 7.794 8.80005 10C8.80005 12.206 10.7734 14 13.2 14ZM13.2 8C14.4133 8 15.4 8.897 15.4 10C15.4 11.103 14.4133 12 13.2 12C11.9867 12 11 11.103 11 10C11 8.897 11.9867 8 13.2 8Z" fill="black"/>
<path id="Vector_2" d="M12.562 21.814C12.7482 21.9349 12.9712 21.9998 13.2 21.9998C13.4288 21.9998 13.6518 21.9349 13.838 21.814C14.1724 21.599 22.0319 16.44 22 10C22 5.589 18.0521 2 13.2 2C8.3479 2 4.4 5.589 4.4 9.995C4.3681 16.44 12.2276 21.599 12.562 21.814ZM13.2 4C16.8399 4 19.8 6.691 19.8 10.005C19.8231 14.443 14.9732 18.428 13.2 19.735C11.4279 18.427 6.5769 14.441 6.6 10C6.6 6.691 9.5601 4 13.2 4Z" fill="black"/>
</g>
</svg>
