<svg width="50" height="50" viewBox="0 0 50 50" fill="none" xmlns="http://www.w3.org/2000/svg">
<g id="bx:rocket">
<path id="Vector" d="M43.5834 4.95833C41.2445 4.43451 38.8552 4.16903 36.4584 4.16666C34.1948 4.02294 31.9251 4.32812 29.7799 5.06464C27.6347 5.80116 25.6563 6.9545 23.9583 8.45833C21.7222 10.6944 19.507 12.9236 17.3125 15.1458C14.7917 14.875 8.81251 14.7292 4.81251 18.7708C4.42449 19.1612 4.2067 19.6892 4.2067 20.2396C4.2067 20.79 4.42449 21.318 4.81251 21.7083L28.3542 45.2917C28.7445 45.6797 29.2725 45.8975 29.8229 45.8975C30.3733 45.8975 30.9013 45.6797 31.2917 45.2917C35.3542 41.125 35.2292 35.25 34.9792 32.7917L41.6667 26.125C48.3125 19.4792 45.2917 7 45.1667 6.47916C45.0705 6.1034 44.8713 5.76195 44.5916 5.49326C44.3119 5.22457 43.9627 5.03931 43.5834 4.95833ZM38.6667 23.1875L31.25 30.5625C31.0098 30.805 30.8329 31.1029 30.7348 31.4298C30.6367 31.7568 30.6205 32.1028 30.6875 32.4375C31.1376 35.2246 30.7459 38.0826 29.5625 40.6458L9.41668 20.4583C12.0205 19.2599 14.9313 18.8961 17.75 19.4167C18.0835 19.4601 18.4225 19.4221 18.7382 19.306C19.0538 19.1899 19.3366 18.9992 19.5625 18.75C19.5625 18.75 22.4792 15.7292 26.875 11.3333C29.578 9.16274 33.0002 8.09144 36.4584 8.33333C38.085 8.34139 39.7083 8.48073 41.3125 8.75C41.8125 11.7292 42.6042 19.25 38.6667 23.1875Z" fill="black"/>
<path id="Vector_2" d="M32.7708 21.4583C35.072 21.4583 36.9375 19.5929 36.9375 17.2917C36.9375 14.9905 35.072 13.125 32.7708 13.125C30.4696 13.125 28.6042 14.9905 28.6042 17.2917C28.6042 19.5929 30.4696 21.4583 32.7708 21.4583Z" fill="black"/>
<path id="Vector_3" d="M10.4167 33.3333C6.25 35.4167 6.25 43.75 6.25 43.75C10.1064 43.64 13.7982 42.1633 16.6667 39.5833L10.4167 33.3333Z" fill="black"/>
</g>
</svg>
