<svg width="50" height="50" viewBox="0 0 50 50" fill="none" xmlns="http://www.w3.org/2000/svg">
<path d="M25 4.16667C13.5125 4.16667 4.16667 13.5125 4.16667 25V33.6313C4.16667 35.7646 6.03542 37.5 8.33334 37.5H10.4167C10.9692 37.5 11.4991 37.2805 11.8898 36.8898C12.2805 36.4991 12.5 35.9692 12.5 35.4167V24.7021C12.5 24.1496 12.2805 23.6196 11.8898 23.229C11.4991 22.8382 10.9692 22.6188 10.4167 22.6188H8.52501C9.68334 14.5563 16.6208 8.33334 25 8.33334C33.3792 8.33334 40.3167 14.5563 41.475 22.6188H39.5833C39.0308 22.6188 38.5009 22.8382 38.1102 23.229C37.7195 23.6196 37.5 24.1496 37.5 24.7021V37.5C37.5 39.7979 35.6313 41.6667 33.3333 41.6667H29.1667V39.5833H20.8333V45.8333H33.3333C37.9292 45.8333 41.6667 42.0958 41.6667 37.5C43.9646 37.5 45.8333 35.7646 45.8333 33.6313V25C45.8333 13.5125 36.4875 4.16667 25 4.16667Z" fill="black"/>
</svg>
