<svg width="80" height="68" viewBox="0 0 80 68" fill="none" xmlns="http://www.w3.org/2000/svg">
<g id="fa:quote-left" clip-path="url(#clip0_12_84)">
<path id="Vector" d="M36.9231 40V58.4615C36.9231 61.0256 36.0256 63.2051 34.2308 65C32.4359 66.7949 30.2564 67.6923 27.6923 67.6923H9.23077C6.66667 67.6923 4.48718 66.7949 2.69231 65C0.897436 63.2051 0 61.0256 0 58.4615V24.6154C0 21.2821 0.649038 18.101 1.94712 15.0721C3.24519 12.0433 5 9.42308 7.21154 7.21154C9.42308 5 12.0433 3.24519 15.0721 1.94712C18.101 0.649038 21.2821 0 24.6154 0H27.6923C28.5256 0 29.2468 0.304487 29.8558 0.913462C30.4647 1.52244 30.7692 2.24359 30.7692 3.07692V9.23077C30.7692 10.0641 30.4647 10.7853 29.8558 11.3942C29.2468 12.0032 28.5256 12.3077 27.6923 12.3077H24.6154C21.2179 12.3077 18.3173 13.5096 15.9135 15.9135C13.5096 18.3173 12.3077 21.2179 12.3077 24.6154V26.1538C12.3077 27.4359 12.7564 28.5256 13.6538 29.4231C14.5513 30.3205 15.641 30.7692 16.9231 30.7692H27.6923C30.2564 30.7692 32.4359 31.6667 34.2308 33.4615C36.0256 35.2564 36.9231 37.4359 36.9231 40ZM80 40V58.4615C80 61.0256 79.1026 63.2051 77.3077 65C75.5128 66.7949 73.3333 67.6923 70.7692 67.6923H52.3077C49.7436 67.6923 47.5641 66.7949 45.7692 65C43.9744 63.2051 43.0769 61.0256 43.0769 58.4615V24.6154C43.0769 21.2821 43.726 18.101 45.024 15.0721C46.3221 12.0433 48.0769 9.42308 50.2885 7.21154C52.5 5 55.1202 3.24519 58.149 1.94712C61.1779 0.649038 64.359 0 67.6923 0H70.7692C71.6026 0 72.3237 0.304487 72.9327 0.913462C73.5417 1.52244 73.8462 2.24359 73.8462 3.07692V9.23077C73.8462 10.0641 73.5417 10.7853 72.9327 11.3942C72.3237 12.0032 71.6026 12.3077 70.7692 12.3077H67.6923C64.2949 12.3077 61.3942 13.5096 58.9904 15.9135C56.5865 18.3173 55.3846 21.2179 55.3846 24.6154V26.1538C55.3846 27.4359 55.8333 28.5256 56.7308 29.4231C57.6282 30.3205 58.7179 30.7692 60 30.7692H70.7692C73.3333 30.7692 75.5128 31.6667 77.3077 33.4615C79.1026 35.2564 80 37.4359 80 40Z" fill="white"/>
</g>
<defs>
<clipPath id="clip0_12_84">
<rect width="80" height="67.6923" fill="white"/>
</clipPath>
</defs>
</svg>
