<svg width="20" height="21" viewBox="0 0 20 21" fill="none" xmlns="http://www.w3.org/2000/svg">
<g clip-path="url(#clip0_276_57)">
<path d="M17.0408 17.1843H14.0775V12.5434C14.0775 11.4368 14.0577 10.0122 12.5362 10.0122C10.9928 10.0122 10.7566 11.218 10.7566 12.4629V17.184H7.79332V7.64054H10.6381V8.94475H10.6779C10.9626 8.45796 11.374 8.0575 11.8683 7.78602C12.3626 7.51454 12.9213 7.3822 13.4848 7.40311C16.4883 7.40311 17.0421 9.37874 17.0421 11.9489L17.0408 17.1843ZM4.44957 6.33608C3.4998 6.33624 2.72972 5.5664 2.72957 4.61663C2.72941 3.66687 3.49918 2.89679 4.44894 2.89663C5.39871 2.8964 6.16878 3.66624 6.16894 4.61601C6.16902 5.0721 5.98793 5.50955 5.66548 5.83213C5.34304 6.1547 4.90566 6.33598 4.44957 6.33608ZM5.93128 17.1844H2.9648V7.64054H5.93121V17.1843L5.93128 17.1844ZM18.5182 0.144522H1.47574C0.670268 0.13546 0.00972168 0.780694 -0.00012207 1.58616V18.6997C0.00940918 19.5055 0.669878 20.1514 1.47566 20.143H18.5182C19.3257 20.153 19.9887 19.5071 19.9999 18.6997V1.58483C19.9884 0.777803 19.3253 0.132647 18.5182 0.143194" fill="#0A66C2"/>
</g>
<defs>
<clipPath id="clip0_276_57">
<rect width="20" height="20" fill="white" transform="translate(0 0.143066)"/>
</clipPath>
</defs>
</svg>
