<svg width="20" height="21" viewBox="0 0 20 21" fill="none" xmlns="http://www.w3.org/2000/svg">
<g clip-path="url(#clip0_276_55)">
<path d="M20 2.57843C19.2511 2.98481 18.4567 3.25157 17.6433 3.36981C18.4905 2.7478 19.1411 1.76283 19.4474 0.589239C18.642 1.17468 17.7608 1.58716 16.8419 1.80886C16.0934 0.83211 15.027 0.22168 13.8468 0.22168C11.5807 0.22168 9.74344 2.47201 9.74344 5.24752C9.74344 5.64149 9.77977 6.02503 9.84969 6.39297C6.43953 6.1833 3.41609 4.18244 1.39227 1.14168C1.03914 1.88398 0.836797 2.74742 0.836797 3.66838C0.836797 5.41211 1.56125 6.95039 2.66219 7.85173C2.01059 7.82673 1.37332 7.61116 0.803594 7.22302C0.803359 7.24407 0.803359 7.26512 0.803359 7.28627C0.803359 9.72139 2.21773 11.7528 4.09477 12.2145C3.49054 12.4158 2.85674 12.4452 2.2418 12.3006C2.76391 14.2974 4.2793 15.7504 6.07477 15.7911C4.67047 17.139 2.90117 17.9425 0.978828 17.9425C0.647578 17.9425 0.321016 17.9187 0 17.8723C1.81586 19.2983 3.97266 20.1304 6.28984 20.1304C13.8373 20.1304 17.9644 12.4719 17.9644 5.83039C17.9644 5.6124 17.9605 5.39565 17.9525 5.18015C18.7558 4.46884 19.4492 3.58782 20 2.57843Z" fill="#55ACEE"/>
</g>
<defs>
<clipPath id="clip0_276_55">
<rect width="20" height="20" fill="white" transform="translate(0 0.143066)"/>
</clipPath>
</defs>
</svg>
